<?xml version="1.0" encoding="UTF-8"?><svg id="Layer_1" data-name="Layer 1" xmlns="http://www.w3.org/2000/svg" viewBox="0 0 190 52.14"><defs><style>.cls-1{fill:#fff;}</style></defs><title>ULACIT logo</title><path class="cls-1" d="M27.7-38.41v24.47H52.17V-38.41Zm13.23,8.57H37.62v6.24H28.76v-7.85H40.93Zm-2.24,7.3H42v-6.24H51.1v7.85H38.69Zm2.24-1.06H38.69v-5.17h2.24ZM51.1-15H28.76v-7.53h8.86v2.67H51.1ZM42-29.84v-2.67H28.76v-4.84H51.1v7.51Z" transform="translate(0 66.07)"/><path class="cls-1" d="M19.74-66.07H0v.51H0v14H0v9.95H24.47V-66.07Zm-5.46,5.15V-65h4.39v1.28h-2V-61l2.46,2.27L15.55-55.9l-4-2.51ZM1.07-65H13.21v3.61L10.58-59,1.07-64.9Zm0,22.34v-8.23L14.4-42.66Zm22.34,0H16.62l6.79-5Zm0-14.62L20-54.63v1.35l3.39-2.65v2.68l-5,3.83v1.34l5-3.83V-49L15.56-43.2,1.07-52.14v-3.28l11.48,7.25v-1.26L1.07-56.68v-2.46l9.09,5.78v-1.26L1.07-60.39v-3.25l14.55,9,7.79-6Zm0-4.64L20-59.34l-2.26-2.08v-1.23h2V-65h3.67Z" transform="translate(0 66.07)"/><path class="cls-1" d="M0-13.93H24.5v-24.5H0ZM23.38-28.17H17.57v-9.14h5.81ZM9.95-21.67H1.11V-23.8H9.95ZM1.11-27.05H9.95v2.14H1.11Zm13.2,0h2.14v2.14H14.32Zm2.14,5.39H14.32V-23.8h2.14Zm-5.39-5.39H13.2v2.14H11.06Zm2.14,5.39H11.06V-23.8H13.2ZM11.06-37.31H13.2v9.14H11.06ZM13.2-15H11.06v-5.5H13.2Zm1.11-5.5h2.14V-15H14.32Zm0-16.76h2.14v9.14H14.32ZM17.57-23.8h5.81v2.14H17.57Zm0-3.25h5.81v2.14H17.57ZM9.95-28.17H1.11v-9.14H9.95ZM1.11-20.55H9.95V-15H1.11Zm16.45,0h5.81V-15H17.57Z" transform="translate(0 66.07)"/><path class="cls-1" d="M27.7-41.6H52.17V-66.07H27.7ZM28.76-65H34v7.76l-5.24-3.15Zm7.41,22.34H28.76V-54.54l7.41,4.65ZM51.11-57.54v14.88H40.64v-7.24M51.11-62.26l-10.2,7.51v1.32l10.2-7.51v2.08L39.58-50.45v7.79H37.24v-7.81l-8.47-5.32v-3.36L34-56h.05l1-.74V-65h1.1v7.44l1.06-.8V-65h1.09v5.82l1.06-.8v-5h11l-7.63,5.59v1.32l8.39-6.15Z" transform="translate(0 66.07)"/><path class="cls-1" d="M57.4-65.21a.78.78,0,0,1,.76-.76h2.67a.76.76,0,0,1,.76.76v16.45c0,4,2.55,7.09,6.61,7.09s6.69-3.07,6.69-7V-65.21a.76.76,0,0,1,.76-.76h2.67a.78.78,0,0,1,.76.76v16.73A10.6,10.6,0,0,1,68.2-37.69,10.56,10.56,0,0,1,57.4-48.48Z" transform="translate(0 66.07)"/><path class="cls-1" d="M104.88-39.11l12.05-26.42a.92.92,0,0,1,.67-.43H118a.92.92,0,0,1,.67.43l12,26.42a.69.69,0,0,1-.67,1h-2.47a.91.91,0,0,1-.9-.59l-2.43-5.38H111.32c-.79,1.81-1.61,3.57-2.39,5.38a1,1,0,0,1-.9.59h-2.47a.69.69,0,0,1-.67-1m17.79-8.32-4.83-10.76h-.19l-4.79,10.76Z" transform="translate(0 66.07)"/><path class="cls-1" d="M145-65.89a13.82,13.82,0,0,1,9.64,3.7.74.74,0,0,1,0,1.12l-1.75,1.79c-.28.36-.64.36-1,0a10.79,10.79,0,0,0-6.89-2.67,10.16,10.16,0,0,0-10,10.36,10.16,10.16,0,0,0,10,10.32,10.66,10.66,0,0,0,6.85-2.63.73.73,0,0,1,1,0l1.83,1.79a.76.76,0,0,1,0,1.07A13.66,13.66,0,0,1,145-37.21a14.28,14.28,0,0,1-14.38-14.3A14.35,14.35,0,0,1,145-65.89" transform="translate(0 66.07)"/><path class="cls-1" d="M160.26.18h2.63a.75.75,0,0,1,.75.75V27.3a.76.76,0,0,1-.76.76h-2.63a.76.76,0,0,1-.76-.76V.94a.76.76,0,0,1,.76-.76Z"/><path class="cls-1" d="M188.67-65.89H169a.76.76,0,0,0-.76.77v2.22a.76.76,0,0,0,.76.76h7.76v23.38a.78.78,0,0,0,.76.76h2.63a.78.78,0,0,0,.76-.76V-62.14h7.77a.76.76,0,0,0,.76-.77v-2.22a.76.76,0,0,0-.76-.77" transform="translate(0 66.07)"/><path class="cls-1" d="M100.74-41.8H87.53V-65.21a.78.78,0,0,0-.76-.76H84.14a.76.76,0,0,0-.76.76v26.37a.76.76,0,0,0,.76.76h16.6a.76.76,0,0,0,.76-.76V-41a.76.76,0,0,0-.76-.76" transform="translate(0 66.07)"/><path class="cls-1" d="M61-32.71h.84l3.64,8h-1l-.94-2.11H59.28l-.95,2.11H57.4Zm2.23,5.13-1.82-4.08-1.83,4.08Z" transform="translate(0 66.07)"/><path class="cls-1" d="M69.61-28.64v0a4,4,0,0,1,4-4.13,4.21,4.21,0,0,1,3,1.06L76-31A3.4,3.4,0,0,0,73.58-32a3.12,3.12,0,0,0-3,3.28v0a3.09,3.09,0,0,0,3.16,3.32,3.76,3.76,0,0,0,2.31-.8v-2H73.58v-.81h3.3v3.19a4.84,4.84,0,0,1-3.21,1.22,3.92,3.92,0,0,1-4.06-4.11" transform="translate(0 66.07)"/><polygon class="cls-1" points="78.63 33.41 79.54 33.41 79.54 40.57 84.03 40.57 84.03 41.41 78.63 41.41 78.63 33.41"/><path class="cls-1" d="M84.61-28.64v0a4,4,0,0,1,4.09-4.13,4,4,0,0,1,4.06,4.11v0a4,4,0,0,1-4.09,4.13,4,4,0,0,1-4.06-4.11m7.21,0v0A3.18,3.18,0,0,0,88.67-32a3.14,3.14,0,0,0-3.13,3.28v0a3.18,3.18,0,0,0,3.15,3.3,3.14,3.14,0,0,0,3.13-3.28" transform="translate(0 66.07)"/><path class="cls-1" d="M94.38-32.65h3.4a2.94,2.94,0,0,1,2.09.71,1.77,1.77,0,0,1,.51,1.28v0a1.93,1.93,0,0,1-1.27,1.85c.95.29,1.71.83,1.71,1.93v0c0,1.37-1.15,2.18-2.9,2.18H94.38Zm3.25,3.56c1.08,0,1.84-.49,1.84-1.43v0c0-.79-.63-1.3-1.77-1.3H95.27v2.75ZM98-25.47c1.21,0,2-.54,2-1.43v0c0-.87-.73-1.37-2.12-1.37H95.27v2.82Z" transform="translate(0 66.07)"/><path class="cls-1" d="M105.3-32.71h.84l3.64,8h-1l-.94-2.11h-4.35l-.95,2.11h-.93Zm2.23,5.13-1.82-4.08-1.83,4.08Z" transform="translate(0 66.07)"/><polygon class="cls-1" points="111.08 33.41 111.98 33.41 111.98 40.57 116.48 40.57 116.48 41.41 111.08 41.41 111.08 33.41"/><path class="cls-1" d="M120.65-28.64v0a4,4,0,0,1,4-4.13,4.16,4.16,0,0,1,3.12,1.27l-.62.66a3.47,3.47,0,0,0-2.51-1.1,3.13,3.13,0,0,0-3.09,3.28v0a3.15,3.15,0,0,0,3.09,3.3,3.47,3.47,0,0,0,2.58-1.15l.59.58a4.16,4.16,0,0,1-3.2,1.4,4,4,0,0,1-4-4.11" transform="translate(0 66.07)"/><path class="cls-1" d="M132.1-32.71h.84l3.64,8h-1l-.94-2.11h-4.35l-.95,2.11h-.93Zm2.23,5.13-1.82-4.08-1.83,4.08Z" transform="translate(0 66.07)"/><polygon class="cls-1" points="137.88 33.41 138.8 33.41 141.71 37.78 144.62 33.41 145.53 33.41 145.53 41.41 144.63 41.41 144.63 34.93 141.72 39.22 141.67 39.22 138.76 34.95 138.76 41.41 137.88 41.41 137.88 33.41"/><path class="cls-1" d="M147.51-32.65h3c1.8,0,3,1,3,2.53v0c0,1.72-1.44,2.61-3.14,2.61h-1.94v2.82h-.9Zm2.88,4.35c1.32,0,2.19-.71,2.19-1.76v0c0-1.14-.86-1.74-2.15-1.74h-2v3.52Z" transform="translate(0 66.07)"/><path class="cls-1" d="M154.73-28v-4.65h.9v4.59c0,1.72.91,2.69,2.44,2.69s2.41-.89,2.41-2.64v-4.65h.9v4.58c0,2.33-1.34,3.54-3.33,3.54A3.13,3.13,0,0,1,154.73-28" transform="translate(0 66.07)"/><path class="cls-1" d="M162.71-25.83l.56-.66A3.81,3.81,0,0,0,166-25.36c1.07,0,1.78-.57,1.78-1.36v0c0-.74-.4-1.16-2.08-1.52-1.84-.4-2.68-1-2.68-2.31v0a2.36,2.36,0,0,1,2.63-2.18,4.17,4.17,0,0,1,2.81,1l-.52.7a3.51,3.51,0,0,0-2.31-.87c-1,0-1.7.57-1.7,1.29v0c0,.75.41,1.18,2.17,1.55s2.6,1,2.6,2.26v0c0,1.37-1.14,2.26-2.73,2.26a4.68,4.68,0,0,1-3.27-1.28" transform="translate(0 66.07)"/><path class="cls-1" d="M173-28.64v0a4,4,0,0,1,4.09-4.13,4,4,0,0,1,4.06,4.11v0a4,4,0,0,1-4.09,4.13A4,4,0,0,1,173-28.64m7.21,0v0a3.18,3.18,0,0,0-3.15-3.3A3.14,3.14,0,0,0,174-28.68v0a3.18,3.18,0,0,0,3.15,3.3,3.14,3.14,0,0,0,3.13-3.28" transform="translate(0 66.07)"/><polygon class="cls-1" points="182.82 33.41 188.57 33.41 188.57 34.25 183.72 34.25 183.72 37.1 188.05 37.1 188.05 37.92 183.72 37.92 183.72 41.41 182.82 41.41 182.82 33.41"/><polygon class="cls-1" points="58.3 47.11 56.42 47.11 56.42 45.86 61.53 45.86 61.53 47.11 59.66 47.11 59.66 52.03 58.3 52.03 58.3 47.11"/><polygon class="cls-1" points="62.36 45.86 63.71 45.86 63.71 48.3 66.22 48.3 66.22 45.86 67.58 45.86 67.58 52.03 66.22 52.03 66.22 49.55 63.71 49.55 63.71 52.03 62.36 52.03 62.36 45.86"/><polygon class="cls-1" points="68.84 45.86 73.5 45.86 73.5 47.06 70.19 47.06 70.19 48.32 73.1 48.32 73.1 49.53 70.19 49.53 70.19 50.82 73.54 50.82 73.54 52.03 68.84 52.03 68.84 45.86"/><path class="cls-1" d="M76.86-16.68v-3.53h1.36v3.49c0,1,.5,1.53,1.33,1.53s1.33-.5,1.33-1.48v-3.54h1.36v3.48a2.49,2.49,0,0,1-2.71,2.79,2.45,2.45,0,0,1-2.67-2.74" transform="translate(0 66.07)"/><polygon class="cls-1" points="83.4 45.86 84.66 45.86 87.55 49.66 87.55 45.86 88.89 45.86 88.89 52.03 87.73 52.03 84.74 48.11 84.74 52.03 83.4 52.03 83.4 45.86"/><rect class="cls-1" x="90.21" y="45.86" width="1.36" height="6.18"/><polygon class="cls-1" points="92.37 45.86 93.87 45.86 95.48 50.2 97.09 45.86 98.56 45.86 96.06 52.08 94.86 52.08 92.37 45.86"/><polygon class="cls-1" points="99.29 45.86 103.95 45.86 103.95 47.06 100.64 47.06 100.64 48.32 103.55 48.32 103.55 49.53 100.64 49.53 100.64 50.82 103.99 50.82 103.99 52.03 99.29 52.03 99.29 45.86"/><path class="cls-1" d="M105-20.21h2.82a2.46,2.46,0,0,1,1.8.63,1.94,1.94,0,0,1,.53,1.41v0a1.92,1.92,0,0,1-1.32,1.91L110.32-14h-1.59l-1.32-2h-1.07v2H105Zm2.73,3c.66,0,1-.35,1-.87v0c0-.58-.41-.88-1.07-.88h-1.35v1.77Z" transform="translate(0 66.07)"/><path class="cls-1" d="M110.71-14.94l.8-1a2.84,2.84,0,0,0,1.84.75c.56,0,.89-.22.89-.58v0c0-.34-.21-.52-1.24-.78-1.24-.32-2-.66-2-1.89v0a1.93,1.93,0,0,1,2.16-1.86,3.57,3.57,0,0,1,2.29.79l-.71,1a2.9,2.9,0,0,0-1.61-.61c-.52,0-.79.24-.79.54v0c0,.41.26.54,1.33.81,1.25.33,2,.78,2,1.85v0c0,1.23-.93,1.91-2.27,1.91a3.93,3.93,0,0,1-2.62-1" transform="translate(0 66.07)"/><rect class="cls-1" x="116.62" y="45.86" width="1.36" height="6.18"/><polygon class="cls-1" points="120.74 47.11 118.86 47.11 118.86 45.86 123.98 45.86 123.98 47.11 122.1 47.11 122.1 52.03 120.74 52.03 120.74 47.11"/><polygon class="cls-1" points="126.54 49.6 124.17 45.86 125.75 45.86 127.23 48.34 128.73 45.86 130.27 45.86 127.9 49.57 127.9 52.03 126.54 52.03 126.54 49.6"/><path class="cls-1" d="M133-17.11v0a3.19,3.19,0,0,1,3.29-3.19,3.16,3.16,0,0,1,3.27,3.18v0a3.19,3.19,0,0,1-3.29,3.19A3.16,3.16,0,0,1,133-17.11m5.14,0v0a1.88,1.88,0,0,0-1.87-1.94,1.85,1.85,0,0,0-1.85,1.92v0a1.88,1.88,0,0,0,1.87,1.94,1.85,1.85,0,0,0,1.85-1.92" transform="translate(0 66.07)"/><polygon class="cls-1" points="140.6 45.86 145.3 45.86 145.3 47.09 141.96 47.09 141.96 48.41 144.91 48.41 144.91 49.64 141.96 49.64 141.96 52.03 140.6 52.03 140.6 45.86"/><path class="cls-1" d="M150.71-20.26H152L154.61-14h-1.42l-.56-1.39H150L149.45-14h-1.39Zm1.43,3.63-.82-2-.82,2Z" transform="translate(0 66.07)"/><path class="cls-1" d="M155.34-20.21h2.82a2.46,2.46,0,0,1,1.8.63,1.94,1.94,0,0,1,.53,1.41v0a1.92,1.92,0,0,1-1.32,1.91L160.68-14h-1.59l-1.32-2H156.7v2h-1.36Zm2.73,3c.66,0,1-.35,1-.87v0c0-.58-.41-.88-1.07-.88H156.7v1.77Z" transform="translate(0 66.07)"/><rect class="cls-1" x="161.56" y="45.86" width="1.36" height="6.18"/><polygon class="cls-1" points="164.06 51 167.45 47.05 164.16 47.05 164.16 45.86 169.2 45.86 169.2 46.89 165.8 50.84 169.2 50.84 169.2 52.03 164.06 52.03 164.06 51"/><path class="cls-1" d="M169.68-17.11v0A3.19,3.19,0,0,1,173-20.32a3.16,3.16,0,0,1,3.27,3.18v0A3.19,3.19,0,0,1,173-13.93a3.16,3.16,0,0,1-3.27-3.18m5.14,0v0A1.88,1.88,0,0,0,173-19.07a1.85,1.85,0,0,0-1.85,1.92v0A1.88,1.88,0,0,0,173-15.18a1.85,1.85,0,0,0,1.85-1.92" transform="translate(0 66.07)"/><polygon class="cls-1" points="177.24 45.86 178.49 45.86 181.38 49.66 181.38 45.86 182.72 45.86 182.72 52.03 181.57 52.03 178.58 48.11 178.58 52.03 177.24 52.03 177.24 45.86"/><path class="cls-1" d="M186.1-20.26h1.25L190-14h-1.42L188-15.42H185.4L184.84-14h-1.39Zm1.43,3.63-.82-2-.82,2Z" transform="translate(0 66.07)"/></svg>